<!DOCTYPE svg PUBLIC "-//W3C//DTD SVG 1.1//EN" "http://www.w3.org/Graphics/SVG/1.1/DTD/svg11.dtd">
<!-- Uploaded to: SVG Repo, www.svgrepo.com, Transformed by: SVG Repo Mixer Tools -->
<svg width="800px" height="800px" viewBox="-573.44 -573.44 2170.88 2170.88" class="icon" version="1.1" xmlns="http://www.w3.org/2000/svg" fill="#000000">
<g id="SVGRepo_bgCarrier" stroke-width="0"/>
<g id="SVGRepo_tracerCarrier" stroke-linecap="round" stroke-linejoin="round"/>
<g id="SVGRepo_iconCarrier">
<path d="M981.333333 746.666667h-85.333333V490.666667c0-211.733333-172.266667-384-384-384S128 278.933333 128 490.666667v256H42.666667V490.666667C42.666667 231.893333 253.226667 21.333333 512 21.333333s469.333333 210.56 469.333333 469.333334v256z" fill="#666666"/>
<path d="M234.666667 533.333333C116.842667 533.333333 21.333333 628.842667 21.333333 746.666667s95.509333 213.333333 213.333334 213.333333V533.333333zM789.333333 533.333333c117.824 0 213.333333 95.509333 213.333334 213.333334s-95.509333 213.333333-213.333334 213.333333V533.333333z" fill="#999999"/>
<path d="M256 490.666667a64 64 0 0 0-64 64v384a64 64 0 1 0 128 0V554.666667a64 64 0 0 0-64-64zM768 490.666667a64 64 0 0 1 64 64v384a64 64 0 1 1-128 0V554.666667a64 64 0 0 1 64-64z" fill="#444444"/>
</g>
</svg>